<svg version="1.1" viewBox="0.0 0.0 720.0 720.0" fill="none" stroke="none" stroke-linecap="square" stroke-miterlimit="10" xmlns:xlink="http://www.w3.org/1999/xlink" xmlns="http://www.w3.org/2000/svg"><clipPath id="p.0"><path d="m0 0l720.0 0l0 720.0l-720.0 0l0 -720.0z" clip-rule="nonzero"/></clipPath><g clip-path="url(#p.0)"><path fill="#000000" fill-opacity="0.0" d="m0 0l720.0 0l0 720.0l-720.0 0z" fill-rule="evenodd"/><path fill="#f2da58" d="m0.005249344 -0.018372703l720.0 0l0 720.0l-720.0 0z" fill-rule="evenodd"/><path fill="#f2ca58" d="m344.2007 26.766405l-7.522064 27.235163l-9.670685 44.67203l-4.2972717 23.969063l1.0724487 15.254417l-18.265198 11.984528l-25.787292 9.805878l-21.49002 7.623413l-10.746872 20.702972l-11.819336 38.132263l-12.891769 61.01387l-7.522064 46.846924l0 45.75946l11.819321 45.75946l10.743149 15.254425l-9.6707 28.326385l-4.2972565 37.04483l-1.0724487 51.204224l-34.38553 16.341858l-26.859726 21.790405l-26.863464 26.15149l-22.5662 35.953613l4.300995 22.877869l-66.6187 39.22345l629.64905 5.4485474l8.598267 -57.74402l-4.3009644 -94.78882l-1.0724487 -122.02396l-11.819336 -56.656555l-21.490051 -81.71307l-9.670654 -28.326385l-5.373474 -49.029358l-3.2210693 -22.877838l-20.417603 -27.238953l11.819336 -44.668243l-4.297241 -44.672035l-18.265198 -44.66824l-22.566223 2.1786613l-21.48999 17.433083l-32.233215 35.95359l-11.819305 14.1632l-48.353485 -1.0912323l-26.859741 0l-27.939636 -8.714645l-13.967957 -3.2698822l-35.457977 -69.72853z" fill-rule="evenodd"/></g></svg>