<svg version="1.1" viewBox="0.0 0.0 720.0 720.0" fill="none" stroke="none" stroke-linecap="square" stroke-miterlimit="10" xmlns:xlink="http://www.w3.org/1999/xlink" xmlns="http://www.w3.org/2000/svg"><clipPath id="p.0"><path d="m0 0l720.0 0l0 720.0l-720.0 0l0 -720.0z" clip-rule="nonzero"/></clipPath><g clip-path="url(#p.0)"><path fill="#000000" fill-opacity="0.0" d="m0 0l720.0 0l0 720.0l-720.0 0z" fill-rule="evenodd"/><path fill="#5865f2" d="m-3.8188977 -10.6850395l732.22046 0l0 745.0079l-732.22046 0z" fill-rule="evenodd"/><path fill="#ffffff" d="m141.37486 471.4908l-1.7245026 -56.572174l3.4489899 -39.16797l12.937622 -52.22049l15.525665 -40.905518l21.562714 -41.7769l12.937622 -20.889755l34.50032 -13.055115l30.1904 -9.574814l25.875244 -6.091858l6.037018 13.055115l5.1760864 13.055115l24.150757 -4.3517l23.2872 -0.86875916l23.2872 0l30.187775 4.3517l10.352173 -24.370087l31.048737 6.963257l46.576996 14.795273l14.66214 6.963257l24.150757 41.7769l13.801147 30.461945l12.074097 29.590546l9.488586 40.036743l4.312561 37.4252l2.5880737 43.51706l-2.5880737 27.853027l-27.599731 19.146973l-36.227417 19.147003l-45.71347 17.409424l-24.150726 -36.556427l37.08835 -19.146973l-9.486023 -7.834656l-29.326843 11.314972l-38.812866 12.18634l-53.47757 4.351715l-50.886932 -6.963257l-47.440567 -19.146973l-7.7615356 4.351715l33.63939 18.275574l-22.426254 39.16797l-36.227432 -13.057739l-26.73619 -12.183716l-31.05133 -18.278229z" fill-rule="evenodd"/><path fill="#5865f2" d="m411.16577 312.58823l0.6843872 -19.782135l-2.0510864 -20.401093l-4.784546 -15.455078l11.620209 1.2360535l8.886749 6.799103l-3.4178162 12.365936l-0.6843872 19.782135l-0.6843872 12.983002l7.52005 -1.2378845l8.202362 4.3289185l-5.4668884 5.56308l-9.571136 1.236023l-1.3667297 11.128052l10.937866 4.327057l5.4668884 6.8009644l0 9.273071l-16.404755 -12.364075l-0.6843872 24.728119l0 24.72815l-0.6823425 22.256073l-6.1533203 10.509064l-7.517975 -10.509064l1.3666992 -15.455109l2.7334595 -34.00116l1.3666992 -14.219055l-11.620209 16.691101l-19.140259 16.692993l-17.089142 6.1820374l19.824646 -19.783997l15.722443 -19.782135l12.302521 -25.347107l-12.302521 3.091034l-19.824677 0l-4.1022034 -6.1820374l24.609192 -3.0910034z" fill-rule="evenodd"/><path fill="#5865f2" d="m456.28937 273.0231l-2.7334595 13.601959l-5.468933 14.219055l-6.835663 8.035156l6.1512756 12.365936l15.722443 -9.891998l-22.558105 27.200195l7.52005 9.891998l23.240417 -14.836121l5.468933 6.799103l6.835663 -5.56308l-1.3666992 -8.037018l-6.153351 -3.0910034l-8.884705 0l3.4178467 8.654083l-17.089172 3.091034l25.973877 -32.14621l-7.5180054 -8.037018l-7.52005 11.746979l-8.886749 1.8531189l12.988983 -28.436249z" fill-rule="evenodd"/><path fill="#5865f2" d="m515.34424 260.27606l-2.7333984 13.601959l-5.4689636 14.219055l-6.835663 8.035156l6.1512756 12.365936l15.722443 -9.891998l-22.558105 27.200195l7.52005 9.891998l23.240448 -14.836151l5.468933 6.7991333l6.8356323 -5.56308l-1.3666992 -8.037018l-6.1533203 -3.091034l-8.884705 0l3.4177856 8.654114l-17.089111 3.0910034l25.973816 -32.14618l-7.5179443 -8.037018l-7.5200806 11.746979l-8.88678 1.8531189l12.989014 -28.436249z" fill-rule="evenodd"/><path fill="#5865f2" d="m472.69366 246.43832l12.304596 2.4739227l7.52005 8.037033l-2.733429 20.401062l2.733429 27.819153l8.88678 37.71115l17.089111 -5.5649414l12.986938 1.8549805l5.468933 6.1820374l-17.771423 1.8549805l-12.989014 1.236023l11.620178 28.43811l8.204468 -12.983002l0 -11.128052l10.253479 1.8549805l8.88678 9.273071l-21.875732 20.401062l14.355713 16.074036l15.722412 8.654114l7.5180054 -28.436249l6.8377075 42.038208l-9.571167 3.0910034l-26.66034 -14.219025l-17.771484 -19.783997l-16.4068 8.655945l-17.089142 3.709961l30.078125 -19.16504l-8.886749 -15.455078l-6.835663 -17.929016l-23.242493 4.327057l0 14.219055l19.140259 4.945984l-6.1512756 12.364075l-12.988983 -11.745117l-14.353638 17.927155l-21.191376 12.983002l17.77353 -21.02002l6.1512756 -25.345215l-8.886749 3.7080994l-12.986938 -8.037018l55.36966 -11.745117l-8.88678 -39.56613l-7.52005 -38.328247z" fill-rule="evenodd"/><path fill="#5865f2" d="m535.59283 332.3751l10.253479 14.838013l10.937927 5.56308l5.468933 -6.799103l-3.4178467 -7.4199524z" fill-rule="evenodd"/><path fill="#5865f2" d="m139.08076 417.68408l23.242477 -17.929016l22.55809 -30.910156l6.835663 -27.819153l-2.0511017 -18.546112l-8.88678 -6.8009644l62.889725 -7.418091l19.822586 -26.5831l-19.140259 1.236023l-13.67131 -1.236023l-18.455872 14.836121l-17.773544 6.800995l25.293594 -25.964172l15.03804 -29.674133l16.406815 11.745117l-17.091217 16.691101l17.773544 -3.0910034l23.242493 -9.273041l19.140259 11.128021l-38.96492 30.910156l43.749466 -6.182007l9.569092 3.0910034l5.468933 8.037018l-36.2294 2.473938l-46.482895 4.945984l-21.873703 2.4720764l-4.1022186 21.018158l-15.03804 40.18509l-19.140259 22.256073l-22.55809 13.600098z" fill-rule="evenodd"/><path fill="#5865f2" d="m215.64908 334.8489l2.733429 8.654114l-0.6823273 22.875l1.3667297 25.345245l4.1022186 13.601959l11.620209 9.273041l12.986923 4.327057l27.344711 3.0910034l28.024963 -0.618927l28.027039 -6.1820374l9.571136 -8.654114l-2.7354736 -8.037018l-7.5180054 -29.055176l-6.1533203 14.836121l-8.202393 15.455109l-11.620209 5.5649414l-19.140259 1.236023l-19.824646 0l-17.773544 -1.8549805l-14.353638 -8.654083l-4.102234 -11.128052l2.051117 -25.347076l3.4178314 -12.983032l23.242493 -6.182007l14.353638 -0.61709595l2.051117 8.654083l-8.202393 19.782135l-17.773544 -1.8531189l13.671341 21.018188l13.671295 -4.327057l7.52005 -14.838013l4.102234 -21.637115l6.835663 -8.654083l-17.089142 -7.4180603l-22.558105 4.3270264l-23.926865 3.7080994z" fill-rule="evenodd"/></g></svg>