<svg version="1.1" viewBox="0.0 0.0 698.8162729658793 476.8976377952756" fill="none" stroke="none" stroke-linecap="square" stroke-miterlimit="10" xmlns:xlink="http://www.w3.org/1999/xlink" xmlns="http://www.w3.org/2000/svg"><clipPath id="p.0"><path d="m0 0l698.8163 0l0 476.89764l-698.8163 0l0 -476.89764z" clip-rule="nonzero"/></clipPath><g clip-path="url(#p.0)"><path fill="#000000" fill-opacity="0.0" d="m0 0l698.8163 0l0 476.89764l-698.8163 0z" fill-rule="evenodd"/><path fill="#2567a2" d="m0.023622047 470.69028l0 -106.03412l262.2415 -84.31232l372.4147 -37.758545l72.41467 -4.1364746l0.51708984 238.96588l-707.07086 -1.5538025l-1.0341208 -110.17062" fill-rule="evenodd"/><path stroke="#2567a2" stroke-width="1.0" stroke-linejoin="round" stroke-linecap="butt" d="m0.023622047 470.69028l0 -106.03412l262.2415 -84.31232l372.4147 -37.758545l72.41467 -4.1364746l0.51708984 238.96588l-707.07086 -1.5538025l-1.0341208 -110.17062" fill-rule="evenodd"/><path fill="#9fc5e8" d="m206.4042 13.414699l498.58267 0l0 124.125984l-498.58267 0z" fill-rule="evenodd"/><path fill="#9fc5e8" d="m467.09448 34.070866l237.92126 0l0 181.10237l-237.92126 0z" fill-rule="evenodd"/><path fill="#9fc5e8" d="m-2.0446193 -2.5853019l705.0079 0l0 66.74016l-705.0079 0z" fill-rule="evenodd"/><path fill="#f0bd8a" d="m1.5748031 64.656166l77.07086 -1.5538025l25.343834 41.897636l42.931763 -2.068245l12.931747 24.309715l32.58531 -1.0341187l10.860886 24.826767l52.24147 -9.309708l16.553802 16.551178l30.0 -3.102356l15.0 -1.0341187l22.758545 31.034119l19.653534 -23.792648l6.2073364 9.309708l29.48294 -2.070877l5.6903076 8.795288l23.792633 -2.5879364l5.1732483 7.7585297l31.034119 -0.5170593l5.6876526 21.724411l-2.5852966 46.551178l20.173218 -1.0341187l-9.309692 -140.1706l-47.07086 -11.380577l-11.37796 -17.585304l-81.20737 -3.6220474l-10.863495 6.724411l-30.51706 1.0341187l-18.619446 -18.102356l-35.173218 0.5170593l-4.653549 -4.65617l-27.414688 -2.5853004l-10.343842 -10.863518l-6.2073364 0l-7.2414703 -6.7217865l-15.517059 0l-5.173233 -5.1732254l-24.826767 0.5170593l-23.275597 -12.931759l-8.275589 0.5170593l-14.482941 -4.1364822l-15.517059 -11.897637l-9.31234 0l-28.448818 -5.690289l-21.204723 0l-18.104986 1.5538058z" fill-rule="evenodd"/><path fill="#d1a273" d="m1.0577428 64.656166l30.51706 -20.690289l25.863518 0.51706314l30.517063 6.207348l10.343826 16.034122l23.79528 17.585297l30.517052 4.1391144l21.721786 9.309708l18.104996 10.860893l8.792648 16.036743l6.2073517 19.653542l0 6.2073517" fill-rule="evenodd"/><path fill="#cfe2f3" d="m0.54068244 81.20735l21.72441 32.585297l7.2414703 1.5511856l48.10499 -39.309715l39.826775 68.79265l30.0 -31.551178l25.343826 51.20735l18.104996 -31.034119l16.034119 40.343826l4.1364746 -6.2073517l-19.136475 -41.895004l-5.6902924 -0.51706696l-13.965881 25.343834l-25.860886 -49.136482l-27.931763 28.96325l-37.75853 -65.68766l-7.7585297 0l-46.551186 35.17061l-25.863518 -34.65355z" fill-rule="evenodd"/><path fill="#d15618" d="m1.5748031 64.656166l70.34645 -0.5170593l-45.0 34.65354z" fill-rule="evenodd"/><path stroke="#d15618" stroke-width="1.0" stroke-linejoin="round" stroke-linecap="butt" d="m1.5748031 64.656166l70.34645 -0.5170593l-45.0 34.65354z" fill-rule="evenodd"/><path fill="#d15618" d="m105.02362 105.51706l39.82939 -1.551178l-26.38057 25.860886z" fill-rule="evenodd"/><path stroke="#d15618" stroke-width="1.0" stroke-linejoin="round" stroke-linecap="butt" d="m105.02362 105.51706l39.82939 -1.551178l-26.38057 25.860886z" fill-rule="evenodd"/><path fill="#d15618" d="m185.71391 127.24147l-24.826767 0l11.895004 23.792648z" fill-rule="evenodd"/><path stroke="#d15618" stroke-width="1.0" stroke-linejoin="round" stroke-linecap="butt" d="m185.71391 127.24147l-24.826767 0l11.895004 23.792648z" fill-rule="evenodd"/><path fill="#9dc08e" d="m16.057743 315.51706l-4.136483 -216.72441l9.826772 15.0l8.79265 1.0341263l47.07087 -37.75853l40.343834 68.79264l-12.414703 0l1.5538101 153.62206l-83.79527 17.068237z" fill-rule="evenodd"/><path fill="#738d67" fill-opacity="0.573" d="m12.95538 114.826775l6.72441 7.2414703l13.965878 -0.51706696l41.89501 -37.24147l30.51706 62.070877l13.448822 0l-41.89501 -68.79528l-47.58793 36.724403l-8.275591 -0.5170593l-9.826772 -14.482941z" fill-rule="evenodd"/><path fill="#738d67" fill-opacity="0.573" d="m105.54068 146.38058l12.931763 -0.5196991l-41.897636 -67.75852z" fill-rule="evenodd"/><path fill="#af2323" d="m106.05774 145.86089l12.931763 -0.5170593l28.448822 -31.034119l25.343826 50.690292l-7.7585297 1.0341187l5.173233 116.897644l-54.309715 13.448822l-4.1391068 -151.03676z" fill-rule="evenodd"/><path fill="#af2323" d="m117.438324 296.38058l53.27559 -6.207367l-1.0341187 -12.931763z" fill-rule="evenodd"/><path fill="#801717" d="m16.574802 315.0l-4.6535425 -215.17322l-10.863517 -18.102364l-1.5511812 240.51704z" fill-rule="evenodd"/><path fill="#317bbd" d="m171.23097 289.65616l36.72441 -8.275574l-1.0341187 -108.104996l-16.034119 -38.79265l-18.622055 30.0l-6.2073517 1.0341187z" fill-rule="evenodd"/><path fill="#cfe2f3" d="m209.50656 278.79266l15.517059 -1.5512085l-2.0682373 -49.1391l-15.0 0.5170593z" fill-rule="evenodd"/><path fill="#f1c232" d="m223.47244 228.61942l-16.034119 0l-1.0341187 -52.23883l17.585297 -0.5196991l31.551178 -25.343826l29.48294 30.51706l-3.102356 91.55118l-55.863525 5.1732483z" fill-rule="evenodd"/><path fill="#d15618" d="m207.43832 175.86089l17.068237 -0.5170593l-4.653549 -7.7585297l34.65355 -25.343826l-50.690292 8.275589l7.2414703 17.585297z" fill-rule="evenodd"/><path fill="#cfe2f3" d="m219.85301 167.5853l4.653549 8.275589l30.0 -25.860886l31.551178 32.068237l2.5879211 -6.724411l-33.62204 -34.136475z" fill-rule="evenodd"/><path fill="#c96946" d="m-0.49343833 322.75854l0.5170604 32.068237l260.69028 -77.06824l301.55118 -31.551193l109.1391 -3.622055l-154.1391 3.622055l-290.1706 25.343826z" fill-rule="evenodd"/><path fill="#a55133" d="m0.023622047 355.6584l0 7.9571533l262.2415 -83.81387l408.10495 -40.318726l-112.758484 4.2450714l-296.3806 32.358902z" fill-rule="evenodd"/><path fill="#f0bd8a" d="m0.023622047 4.656168l38.275593 -2.5879266l29.482937 7.2414703l12.414703 0.5170603l9.309708 9.312335l10.346458 5.687664l14.480316 0l10.863518 3.104988l7.2414703 4.6535416l8.792648 6.2073517l11.897644 -0.51706314l10.343826 -2.0682411l4.6561737 3.1023636l3.6194153 4.1391068l12.414703 -2.587925l8.275589 7.2414703l7.2414703 1.0367432l8.792648 9.309711l31.034119 5.1706047l16.551178 2.5879288l20.173218 0.5170593l10.343842 6.207344l9.312347 10.860893l29.48294 -1.0341187l10.343811 -6.2073517l17.068268 -0.5170593l69.31232 8.792656l15.517059 15.517059l41.89502 10.863518l47.068268 15.517059l20.173218 3.6194153l82.241455 3.622055l0 7.2414703l17.585327 11.377945l5.173218 10.863525l10.346436 11.895004l10.343811 18.104996l9.309753 11.377945l11.897644 3.1049957l7.758484 7.2414703" fill-rule="evenodd"/><path fill="#f0bd8a" d="m472.2651 146.38058l10.863495 102.92912l75.51709 -5.6902924l147.41205 -4.653534l0 -22.75853l-7.758545 -3.1049957z" fill-rule="evenodd"/><path fill="#cfe2f3" d="m289.16272 181.55118l24.309723 -22.24147l23.792664 29.48294l3.1049805 -5.173233l-25.346466 -31.551178l-26.37796 21.724411z" fill-rule="evenodd"/><path fill="#d15618" d="m271.05774 158.27559l43.96588 -5.173233l-26.89502 21.207352z" fill-rule="evenodd"/><path fill="#d15618" d="m359.50656 161.89764l-36.207336 -0.5170593l17.070862 23.275589z" fill-rule="evenodd"/><path fill="#cfe2f3" d="m340.3701 184.13911l19.653534 -23.795288l18.10498 25.863525l15.517059 -20.173233l16.551178 24.309708l13.965881 -18.102356l12.931763 22.24147l8.275604 -16.034119l7.7585144 16.551178l5.687683 -15.517059l8.278198 25.343826l-7.241455 -14.482941l-6.7244263 11.897644l-7.241455 -12.931763l-8.275604 12.414703l-13.448822 -18.104996l-15.517059 14.482941l-14.482941 -22.24147l-16.551178 18.622055l-17.070862 -23.792648l-19.136475 19.136475z" fill-rule="evenodd"/><path fill="#d15618" d="m392.61154 166.55118l-26.380585 1.0341187l11.897644 19.139114z" fill-rule="evenodd"/><path stroke="#d15618" stroke-width="1.0" stroke-linejoin="round" stroke-linecap="butt" d="m392.61154 166.55118l-26.380585 1.0341187l11.897644 19.139114z" fill-rule="evenodd"/><path fill="#d15618" d="m423.64566 172.75853l-26.380554 -0.5170593l12.414673 19.656174z" fill-rule="evenodd"/><path stroke="#d15618" stroke-width="1.0" stroke-linejoin="round" stroke-linecap="butt" d="m423.64566 172.75853l-26.380554 -0.5170593l12.414673 19.656174z" fill-rule="evenodd"/><path fill="#d15618" d="m445.3701 178.96588l-16.553802 0l8.795258 16.551178z" fill-rule="evenodd"/><path stroke="#d15618" stroke-width="1.0" stroke-linejoin="round" stroke-linecap="butt" d="m445.3701 178.96588l-16.553802 0l8.795258 16.551178z" fill-rule="evenodd"/><path fill="#d15618" d="m459.33334 180.0l-11.89502 0l6.2073364 15.0z" fill-rule="evenodd"/><path stroke="#d15618" stroke-width="1.0" stroke-linejoin="round" stroke-linecap="butt" d="m459.33334 180.0l-11.89502 0l6.2073364 15.0z" fill-rule="evenodd"/><path fill="#af2323" d="m289.67978 265.34384l-1.0341187 -82.241486l25.343842 -22.24147l22.758514 27.931763l-3.102356 72.93175z" fill-rule="evenodd"/><path stroke="#af2323" stroke-width="1.0" stroke-linejoin="round" stroke-linecap="butt" d="m289.67978 265.34384l-1.0341187 -82.241486l25.343842 -22.24147l22.758514 27.931763l-3.102356 72.93175z" fill-rule="evenodd"/><path fill="#801717" d="m290.19684 265.8609l-1.551178 -88.96326l-6.7243958 88.96326z" fill-rule="evenodd"/><path stroke="#801717" stroke-width="1.0" stroke-linejoin="round" stroke-linecap="butt" d="m290.19684 265.8609l-1.551178 -88.96326l-6.7243958 88.96326z" fill-rule="evenodd"/><path fill="#801717" d="m335.7139 261.7244l1.5512085 -68.27557l22.758514 -22.24147l17.070862 23.275589l-1.0367432 64.136475z" fill-rule="evenodd"/><path stroke="#801717" stroke-width="1.0" stroke-linejoin="round" stroke-linecap="butt" d="m335.7139 261.7244l1.5512085 -68.27557l22.758514 -22.24147l17.070862 23.275589l-1.0367432 64.136475z" fill-rule="evenodd"/><path fill="#f1c232" d="m377.61154 258.61942l1.0341187 -63.619415l15.517059 -19.139114l14.482941 21.724411l0.5170593 56.897644z" fill-rule="evenodd"/><path stroke="#f1c232" stroke-width="1.0" stroke-linejoin="round" stroke-linecap="butt" d="m377.61154 258.61942l1.0341187 -63.619415l15.517059 -19.139114l14.482941 21.724411l0.5170593 56.897644z" fill-rule="evenodd"/><path fill="#f3f3f3" d="m410.7139 255.51706l-1.551178 -57.931763l15.0 -15.517059l12.931763 20.173233l-2.5879211 51.72441z" fill-rule="evenodd"/><path fill="#af2323" d="m435.54068 254.48294l21.724426 -3.622055l-4.136505 -47.585297l-7.7585144 -12.931763l-7.2414856 10.863525z" fill-rule="evenodd"/><path fill="#801717" d="m463.9895 250.34383l2.0682373 -43.96324l-6.204712 -14.482941l-6.207367 11.895004l0 49.139114z" fill-rule="evenodd"/><path fill="#801717" d="m165.02362 165.51706l-23.792648 -42.414696l6.2073517 -8.792656l24.826767 49.139114z" fill-rule="evenodd"/><path fill="#2567a2" d="m206.4042 173.79265l-8.275589 0l-12.414703 -31.034119l4.139099 -8.275589z" fill-rule="evenodd"/><path fill="#daae2a" d="m285.02362 182.06824l-9.309723 0l-25.860886 -26.377945l5.687668 -6.724411z" fill-rule="evenodd"/><path fill="#801717" d="m337.2651 189.82677l-8.792664 0l-19.656158 -24.309708l5.690277 -6.724411z" fill-rule="evenodd"/><path fill="#e6b483" d="m197.61154 138.10236l24.309723 -11.377945l43.96588 -3.104988l56.37796 10.346458l64.1391 18.619415l45.51706 17.070877l13.965881 0l20.687653 3.6194153l13.448822 11.897644l19.656158 20.687653l4.6535645 16.553818l6.7243958 21.724411l16.036743 2.5852966l-62.58792 4.1364746l2.5879211 -47.068237l-7.241455 -24.309708l-31.553802 -0.5170593l-4.136505 -6.2073517l-26.380554 -0.5170593l-4.136505 -5.173233l-28.448822 0.5170593l-4.139099 -6.204712l-37.241455 0.5170593l-7.758545 -8.278229l-43.446198 4.6561737l-16.553802 -17.068237l-51.72441 9.309708z" fill-rule="evenodd"/><path fill="#fac999" d="m481.05774 185.69029l61.553833 -10.346466l38.792603 9.312347l50.690308 17.068237l41.89502 19.656174l13.4487915 19.653534l-160.34381 5.173233l-16.553802 -2.0682373l-10.860901 -38.27823z" fill-rule="evenodd"/><path fill="#999999" d="m340.3701 346.03412l-15.517059 6.2073364l0 9.826782l10.343811 27.931763l35.690308 4.6561584l20.170593 -3.6220398l7.758545 -17.068237l-6.2047424 -19.1391l-18.10498 -10.860901l-27.931763 -0.5170593z" fill-rule="evenodd"/><path stroke="#999999" stroke-width="1.0" stroke-linejoin="round" stroke-linecap="butt" d="m340.3701 346.03412l-15.517059 6.2073364l0 9.826782l10.343811 27.931763l35.690308 4.6561584l20.170593 -3.6220398l7.758545 -17.068237l-6.2047424 -19.1391l-18.10498 -10.860901l-27.931763 -0.5170593z" fill-rule="evenodd"/><path fill="#666666" d="m324.33334 352.24146l-8.792664 4.1391296l-6.2073364 10.86087l1.0367432 17.068268l12.929138 30.51706l31.553802 9.312317l30.0 5.170624l20.170593 -5.6903076l6.7243958 -13.4461975l-9.826752 -40.863495l-8.275604 -15.517059l6.207367 20.173218l-8.278229 15.517059l-17.068237 5.173218l-38.792664 -3.6220398l-10.86087 -28.965881z" fill-rule="evenodd"/><path fill="#801717" d="m111.74803 145.86089l-6.2073517 0l1.5538101 152.58794l9.826767 -2.0682373z" fill-rule="evenodd"/><path stroke="#801717" stroke-width="1.0" stroke-linejoin="round" stroke-linecap="butt" d="m111.74803 145.86089l-6.2073517 0l1.5538101 152.58794l9.826767 -2.0682373z" fill-rule="evenodd"/><path fill="#c96946" d="m0 323.01837l16.03412 -8.018372l7.7585297 1.8110352l40.34646 -8.275604z" fill-rule="evenodd"/><path fill="#317bbd" d="m165.25984 166.29396l7.7585297 -1.8110199l5.687668 118.188965l-8.015747 1.2939758z" fill-rule="evenodd"/><path fill="#cfe2f3" d="m207.93176 276.20734l-0.25984192 -47.328064l16.551178 0l2.0708618 42.414703z" fill-rule="evenodd"/><path fill="#801717" d="m281.6378 266.6378l3.102356 -85.34383l4.3989563 -6.4671936l1.551178 91.034134z" fill-rule="evenodd"/><path fill="#801717" d="m334.39633 262.24146l2.5852966 -72.15485l2.8451538 -4.913376l2.0708618 3.102356l-3.3622131 73.44881z" fill-rule="evenodd"/><path fill="#af2323" d="m444.0525 192.4147l2.0682373 -3.1049957l7.758545 14.225723l-0.25985718 49.13649l-18.619415 1.551178l2.5852966 -52.498688l8.795288 -12.414703" fill-rule="evenodd"/><path fill="#801717" d="m453.87927 201.98163l6.464569 -11.637802l6.2073364 14.225723l-2.3280945 46.291336l-9.826752 2.070877z" fill-rule="evenodd"/><path fill="#cfe2f3" d="m459.82678 180.25984l7.241455 23.015747l-8.532806 -18.102356z" fill-rule="evenodd"/><path fill="#d15618" d="m211.55118 168.10236l-4.913376 5.433075l-0.2572174 2.5852966l18.102356 -0.25984192z" fill-rule="evenodd"/><path fill="#af2323" d="m336.16534 218.99475l-0.8031311 43.280853l-44.70868 4.015747l0.0892334 -7.228363z" fill-rule="evenodd"/><path fill="#daae2a" d="m409.2546 197.39896l1.5170593 58.272964l-34.356964 3.3910675l1.1600952 -64.60892l16.419952 -19.007874z" fill-rule="evenodd"/><path fill="#f3f3f3" d="m428.26248 188.38583l9.45929 13.475052l-0.5354309 52.02626l-26.236206 1.8740082l-1.6062927 -58.272964l14.724396 -15.349075z" fill-rule="evenodd"/><path fill="#801717" d="m466.7244 205.07349l0 -1.0708618l-6.8713684 -13.832016l-6.4252014 11.690277l0.0892334 51.133865l11.154846 -2.0524902z" fill-rule="evenodd"/><path fill="#d15618" d="m445.84253 179.28346l14.188965 0.17848206l-6.4252014 16.419952z" fill-rule="evenodd"/><path fill="#cfe2f3" d="m314.74802 158.6693l-25.343811 23.112854l-0.892395 -7.6745453l25.522308 -20.257217z" fill-rule="evenodd"/><path fill="#cfe2f3" d="m255.85039 149.0315l-31.412064 26.8609l-4.372711 -8.031509l34.53543 -26.236221z" fill-rule="evenodd"/><path fill="#d15618" d="m203.55643 150.99475l7.40683 16.866135l-4.1049957 5.3543396l-0.44618225 3.0341187l18.29396 -0.4461975l-4.72966 -8.29921l34.713913 -25.968506z" fill-rule="evenodd"/><path fill="#317bbd" d="m172.59055 164.46982l-7.4068146 1.1601105l4.9973755 118.95537l30.608917 -6.9606323z" fill-rule="evenodd"/><path stroke="#317bbd" stroke-width="1.0" stroke-linejoin="round" stroke-linecap="butt" d="m172.59055 164.46982l-7.4068146 1.1601105l4.9973755 118.95537l30.608917 -6.9606323z" fill-rule="evenodd"/><path fill="#801717" d="m147.69292 113.333336l25.254593 50.77952l-8.120743 1.0708771l-25.07611 -43.54856z" fill-rule="evenodd"/><path fill="#af2323" d="m116.367455 145.64043l23.293968 -24.094498l3.837265 7.0498657l-26.863518 21.863525z" fill-rule="evenodd"/><path fill="#738d67" d="m29.805775 114.49344l48.099735 -38.461945l40.33596 68.002625l-1.9632568 1.606308l-10.887138 0.0892334l-29.80577 -61.220474l-41.94226 37.125984l-14.099737 0.26771545l-7.1391068 -7.4094467l-0.5354328 -16.419945l10.530184 15.973747l8.2992115 0.35695648z" fill-rule="evenodd"/><path fill="#801717" d="m11.868767 100.48294l0 -2.5879288l-11.779528 -17.312332l0 141.17847l-0.6246719 100.92912l1.5170603 -0.1784668l15.527558 -7.496063l-4.551181 -216.85303" fill-rule="evenodd"/><path fill="#cfe2f3" d="m27.128609 99.76903l-25.611547 -35.6063l-3.8372703 0.08924103l1.7847769 16.24147l22.934383 33.46457z" fill-rule="evenodd"/><path fill="#f0bd8a" d="m0.26771653 4.8188977l-2.4094486 0.8031497l-0.53543305 59.07612l4.3727036 -0.4461975z" fill-rule="evenodd"/><path fill="#a55133" d="m-0.89238846 354.99475l177.23097 -53.007874l1.4278259 5.3543396l-181.87138 58.364807z" fill-rule="evenodd"/><path fill="#a55133" d="m176.69554 307.87665l86.56169 -28.199493l-2.1417542 -3.3910522l-87.27559 26.414673z" fill-rule="evenodd"/></g></svg>